<svg width="155" height="155" viewBox="0 0 155 155" fill="none" xmlns="http://www.w3.org/2000/svg">
<g filter="url(#filter0_dd_6_1803)">
<path d="M29.6875 23.75C29.6875 10.6332 40.3207 0 53.4375 0H100.938C114.054 0 124.688 10.6332 124.688 23.75V71.25C124.688 84.3668 114.054 95 100.938 95H53.4375C40.3207 95 29.6875 84.3668 29.6875 71.25V23.75Z" fill="url(#paint0_linear_6_1803)" shape-rendering="crispEdges"/>
<path d="M73.2295 52.7646V55.9828C73.222 56.6609 73.0405 57.3257 72.7022 57.9135C72.364 58.5012 71.8804 58.9923 71.2978 59.3394C70.0611 60.2554 69.0551 61.4472 68.3597 62.8201C67.6643 64.193 67.2987 65.7092 67.292 67.2482" stroke="white" stroke-width="3.95833" stroke-linecap="round" stroke-linejoin="round"/>
<path d="M81.145 52.7646V55.9828C81.1525 56.6609 81.3341 57.3257 81.6723 57.9135C82.0106 58.5012 82.4941 58.9923 83.0767 59.3394C84.3134 60.2554 85.3194 61.4472 86.0148 62.8201C86.7102 64.193 87.0758 65.7092 87.0825 67.2482" stroke="white" stroke-width="3.95833" stroke-linecap="round" stroke-linejoin="round"/>
<path d="M89.063 41.5626H92.0317C93.344 41.5626 94.6025 41.0413 95.5304 40.1134C96.4584 39.1855 96.9797 37.9269 96.9797 36.6147C96.9797 35.3024 96.4584 34.0439 95.5304 33.116C94.6025 32.188 93.344 31.6667 92.0317 31.6667H89.063" stroke="white" stroke-width="3.95833" stroke-linecap="round" stroke-linejoin="round"/>
<path d="M61.3545 67.2915H93.0212" stroke="white" stroke-width="3.95833" stroke-linecap="round" stroke-linejoin="round"/>
<path d="M65.312 41.5624C65.312 44.7119 66.5631 47.7323 68.7901 49.9593C71.0171 52.1863 74.0376 53.4374 77.187 53.4374C80.3365 53.4374 83.3569 52.1863 85.5839 49.9593C87.8109 47.7323 89.062 44.7119 89.062 41.5624V29.6874C89.062 29.1625 88.8535 28.6591 88.4823 28.2879C88.1112 27.9168 87.6078 27.7083 87.0828 27.7083H67.2912C66.7663 27.7083 66.2629 27.9168 65.8917 28.2879C65.5205 28.6591 65.312 29.1625 65.312 29.6874V41.5624Z" stroke="white" stroke-width="3.95833" stroke-linecap="round" stroke-linejoin="round"/>
<path d="M65.3107 41.5626H62.342C61.0297 41.5626 59.7712 41.0413 58.8433 40.1134C57.9153 39.1855 57.394 37.9269 57.394 36.6147C57.394 35.3024 57.9153 34.0439 58.8433 33.116C59.7712 32.188 61.0297 31.6667 62.342 31.6667H65.3107" stroke="white" stroke-width="3.95833" stroke-linecap="round" stroke-linejoin="round"/>
</g>
<defs>
<filter id="filter0_dd_6_1803" x="4.29153e-06" y="0" width="154.375" height="154.375" filterUnits="userSpaceOnUse" color-interpolation-filters="sRGB">
<feFlood flood-opacity="0" result="BackgroundImageFix"/>
<feColorMatrix in="SourceAlpha" type="matrix" values="0 0 0 0 0 0 0 0 0 0 0 0 0 0 0 0 0 0 127 0" result="hardAlpha"/>
<feMorphology radius="8.90625" operator="erode" in="SourceAlpha" result="effect1_dropShadow_6_1803"/>
<feOffset dy="11.875"/>
<feGaussianBlur stdDeviation="7.42188"/>
<feComposite in2="hardAlpha" operator="out"/>
<feColorMatrix type="matrix" values="0 0 0 0 0 0 0 0 0 0 0 0 0 0 0 0 0 0 0.1 0"/>
<feBlend mode="normal" in2="BackgroundImageFix" result="effect1_dropShadow_6_1803"/>
<feColorMatrix in="SourceAlpha" type="matrix" values="0 0 0 0 0 0 0 0 0 0 0 0 0 0 0 0 0 0 127 0" result="hardAlpha"/>
<feMorphology radius="7.42188" operator="erode" in="SourceAlpha" result="effect2_dropShadow_6_1803"/>
<feOffset dy="29.6875"/>
<feGaussianBlur stdDeviation="18.5547"/>
<feComposite in2="hardAlpha" operator="out"/>
<feColorMatrix type="matrix" values="0 0 0 0 0 0 0 0 0 0 0 0 0 0 0 0 0 0 0.1 0"/>
<feBlend mode="normal" in2="effect1_dropShadow_6_1803" result="effect2_dropShadow_6_1803"/>
<feBlend mode="normal" in="SourceGraphic" in2="effect2_dropShadow_6_1803" result="shape"/>
</filter>
<linearGradient id="paint0_linear_6_1803" x1="29.6875" y1="0" x2="124.688" y2="95" gradientUnits="userSpaceOnUse">
<stop stop-color="#C27AFF"/>
<stop offset="1" stop-color="#F6339A"/>
</linearGradient>
</defs>
</svg>
