<svg width="51" height="51" viewBox="0 0 51 51" fill="none" xmlns="http://www.w3.org/2000/svg">
<path d="M0 14.875C0 6.65977 6.65976 0 14.875 0H36.125C44.3402 0 51 6.65976 51 14.875V36.125C51 44.3402 44.3402 51 36.125 51H14.875C6.65977 51 0 44.3402 0 36.125V14.875Z" fill="url(#paint0_linear_6_1915)"/>
<path d="M29.75 15.9375C29.1864 15.9375 28.6459 16.1614 28.2474 16.5599C27.8489 16.9584 27.625 17.4989 27.625 18.0625V24.4375C27.625 25.0011 27.8489 25.5416 28.2474 25.9401C28.6459 26.3386 29.1864 26.5625 29.75 26.5625C30.0318 26.5625 30.302 26.6744 30.5013 26.8737C30.7006 27.073 30.8125 27.3432 30.8125 27.625V28.6875C30.8125 29.2511 30.5886 29.7916 30.1901 30.1901C29.7916 30.5886 29.2511 30.8125 28.6875 30.8125C28.4057 30.8125 28.1355 30.9244 27.9362 31.1237C27.7369 31.323 27.625 31.5932 27.625 31.875V34C27.625 34.2818 27.7369 34.552 27.9362 34.7513C28.1355 34.9506 28.4057 35.0625 28.6875 35.0625C30.3783 35.0625 31.9998 34.3909 33.1953 33.1953C34.3909 31.9998 35.0625 30.3783 35.0625 28.6875V18.0625C35.0625 17.4989 34.8386 16.9584 34.4401 16.5599C34.0416 16.1614 33.5011 15.9375 32.9375 15.9375H29.75Z" stroke="white" stroke-width="2.125" stroke-linecap="round" stroke-linejoin="round"/>
<path d="M18.0625 15.9375C17.4989 15.9375 16.9584 16.1614 16.5599 16.5599C16.1614 16.9584 15.9375 17.4989 15.9375 18.0625V24.4375C15.9375 25.0011 16.1614 25.5416 16.5599 25.9401C16.9584 26.3386 17.4989 26.5625 18.0625 26.5625C18.3443 26.5625 18.6145 26.6744 18.8138 26.8737C19.0131 27.073 19.125 27.3432 19.125 27.625V28.6875C19.125 29.2511 18.9011 29.7916 18.5026 30.1901C18.1041 30.5886 17.5636 30.8125 17 30.8125C16.7182 30.8125 16.448 30.9244 16.2487 31.1237C16.0494 31.323 15.9375 31.5932 15.9375 31.875V34C15.9375 34.2818 16.0494 34.552 16.2487 34.7513C16.448 34.9506 16.7182 35.0625 17 35.0625C18.6908 35.0625 20.3123 34.3909 21.5078 33.1953C22.7033 31.9998 23.375 30.3783 23.375 28.6875V18.0625C23.375 17.4989 23.1511 16.9584 22.7526 16.5599C22.3541 16.1614 21.8136 15.9375 21.25 15.9375H18.0625Z" stroke="white" stroke-width="2.125" stroke-linecap="round" stroke-linejoin="round"/>
<defs>
<linearGradient id="paint0_linear_6_1915" x1="0" y1="0" x2="51" y2="51" gradientUnits="userSpaceOnUse">
<stop stop-color="#C27AFF"/>
<stop offset="1" stop-color="#F6339A"/>
</linearGradient>
</defs>
</svg>
